<svg width="136" height="33" viewBox="0 0 136 33" fill="none" xmlns="http://www.w3.org/2000/svg">
<g clip-path="url(#clip0_12478_49613)">
<path d="M32.3967 0H0V32.3967H32.3967V0Z" fill="#E60012"/>
<path d="M6.79786 4.18707C5.3529 4.18707 4.18707 5.3529 4.18707 6.79786C4.18707 8.24282 5.36932 9.40864 6.79786 9.40864C8.2264 9.40864 9.40865 8.24282 9.40865 6.79786C9.40865 5.3529 8.24282 4.18707 6.79786 4.18707ZM6.79786 8.2264C6.0097 8.2264 5.36932 7.58602 5.36932 6.79786C5.36932 6.0097 6.0097 5.36932 6.79786 5.36932C7.58602 5.36932 8.2264 6.0097 8.2264 6.79786C8.2264 7.58602 7.58602 8.2264 6.79786 8.2264ZM16.2065 9.40864C17.6515 9.40864 18.8173 8.24282 18.8173 6.79786C18.8173 5.3529 17.6515 4.18707 16.2065 4.18707C14.7616 4.18707 13.5958 5.3529 13.5958 6.79786C13.5958 8.24282 14.7616 9.40864 16.2065 9.40864ZM16.2065 5.3529C16.9947 5.3529 17.6351 5.99328 17.6351 6.78144C17.6351 7.5696 16.9947 8.20998 16.2065 8.20998C15.4184 8.20998 14.778 7.5696 14.778 6.78144C14.778 5.99328 15.4184 5.3529 16.2065 5.3529ZM25.5988 9.40864C27.0438 9.40864 28.2096 8.24282 28.2096 6.79786C28.2096 5.3529 27.0438 4.18707 25.5988 4.18707C24.1538 4.18707 22.988 5.3529 22.988 6.79786C22.988 8.24282 24.1538 9.40864 25.5988 9.40864ZM25.5988 5.3529C26.387 5.3529 27.0273 5.99328 27.0273 6.78144C27.0273 7.5696 26.387 8.20998 25.5988 8.20998C24.8106 8.20998 24.1703 7.5696 24.1703 6.78144C24.1703 5.99328 24.8106 5.3529 25.5988 5.3529ZM6.79786 13.5793C5.3529 13.5793 4.18707 14.7452 4.18707 16.1901C4.18707 17.6351 5.36932 18.8009 6.79786 18.8009C8.2264 18.8009 9.40865 17.6351 9.40865 16.1901C9.40865 14.7452 8.24282 13.5793 6.79786 13.5793ZM6.79786 17.6351C6.0097 17.6351 5.36932 16.9947 5.36932 16.2065C5.36932 15.4184 6.0097 14.778 6.79786 14.778C7.58602 14.778 8.2264 15.4184 8.2264 16.2065C8.2264 16.9947 7.58602 17.6351 6.79786 17.6351ZM16.2065 13.5793C14.7616 13.5793 13.5958 14.7452 13.5958 16.1901C13.5958 17.6351 14.7616 18.8009 16.2065 18.8009C17.6515 18.8009 18.8173 17.6351 18.8173 16.1901C18.8173 14.7452 17.6515 13.5793 16.2065 13.5793ZM16.2065 17.6351C15.4184 17.6351 14.778 16.9947 14.778 16.2065C14.778 15.4184 15.4184 14.778 16.2065 14.778C16.9947 14.778 17.6351 15.4184 17.6351 16.2065C17.6351 16.9947 16.9947 17.6351 16.2065 17.6351ZM25.5988 18.8173C27.0438 18.8173 28.2096 17.6515 28.2096 16.2065C28.2096 14.7616 27.0438 13.5958 25.5988 13.5958C24.1538 13.5958 22.988 14.7616 22.988 16.2065C22.988 17.6515 24.1538 18.8173 25.5988 18.8173ZM25.5988 14.7616C26.387 14.7616 27.0273 15.402 27.0273 16.1901C27.0273 16.9783 26.387 17.6187 25.5988 17.6187C24.8106 17.6187 24.1703 16.9783 24.1703 16.1901C24.1703 15.402 24.8106 14.7616 25.5988 14.7616ZM25.5988 22.988C24.1538 22.988 22.988 24.1538 22.988 25.5988C22.988 27.0438 24.1538 28.2096 25.5988 28.2096C27.0438 28.2096 28.2096 27.0438 28.2096 25.5988C28.2096 24.1538 27.0438 22.988 25.5988 22.988ZM25.5988 27.0273C24.8106 27.0273 24.1703 26.387 24.1703 25.5988C24.1703 24.8106 24.8106 24.1703 25.5988 24.1703C26.387 24.1703 27.0273 24.8106 27.0273 25.5988C27.0273 26.387 26.387 27.0273 25.5988 27.0273ZM20.7385 25.0734C20.4593 24.9913 19.6876 24.8271 19.704 24.433C19.704 24.1046 20.1145 23.9896 20.3936 23.9896C21.1982 23.9896 21.2311 24.6136 21.2311 24.6136H22.3805C22.3805 24.6136 22.2984 22.988 20.4429 22.988C19.5562 22.988 18.5218 23.4478 18.5218 24.4987C18.5218 24.5808 18.4232 25.5167 19.9996 25.8944C20.8206 26.0914 21.2475 26.2228 21.2475 26.7154C21.2475 26.7154 21.1818 27.2244 20.525 27.2244C19.4905 27.2244 19.6055 26.4034 19.6055 26.4034H18.4397C18.4397 26.4034 18.259 28.226 20.5086 28.226C20.5086 28.226 22.4297 28.2917 22.4297 26.584C22.4297 26.3049 22.3476 25.4839 20.7549 25.0734H20.7385ZM14.2361 23.4314C13.8256 23.1522 13.333 23.0044 12.7912 23.0044C11.3462 23.0044 10.1804 24.1703 10.1804 25.6152C10.1804 27.0602 11.3462 28.226 12.7912 28.226C13.3166 28.226 13.8092 28.0618 14.2361 27.7827V28.226H15.402V23.0044H14.2197V23.4314H14.2361ZM12.8076 27.0273C12.0194 27.0273 11.379 26.387 11.379 25.5988C11.379 24.8106 12.0194 24.1703 12.8076 24.1703C13.5958 24.1703 14.2361 24.8106 14.2361 25.5988C14.2361 26.387 13.5958 27.0273 12.8076 27.0273ZM8.2264 23.4314C7.8159 23.1522 7.3233 23.0044 6.78144 23.0044C5.33648 23.0044 4.17065 24.1703 4.17065 25.6152C4.17065 27.0602 5.33648 28.226 6.78144 28.226C7.30688 28.226 7.79948 28.0618 8.2264 27.7827V28.226H9.40865V21.2311H8.24282V23.4314H8.2264ZM6.79786 27.0273C6.0097 27.0273 5.36932 26.387 5.36932 25.5988C5.36932 24.8106 6.0097 24.1703 6.79786 24.1703C7.58602 24.1703 8.2264 24.8106 8.2264 25.5988C8.2264 26.387 7.58602 27.0273 6.79786 27.0273ZM16.4693 28.226H17.6515V23.0044H16.4693V28.226Z" fill="white"/>
<path d="M83.3547 22.085C80.2513 22.085 77.7226 19.5563 77.7226 16.4529C77.7226 13.3495 80.2513 10.8044 83.3547 10.8044C86.4581 10.8044 89.0032 13.3331 89.0032 16.4529C89.0032 19.5727 86.4745 22.085 83.3547 22.085ZM83.3547 6.15753C77.6898 6.15753 73.0593 10.7716 73.0593 16.4529C73.0593 22.1342 77.6734 26.7482 83.3547 26.7482C89.036 26.7482 93.6501 22.1178 93.6501 16.4529C93.6501 10.788 89.036 6.15753 83.3547 6.15753Z" fill="#E60012"/>
<path d="M101.827 4.8111H97.0984V28.0947H101.827V4.8111Z" fill="#E60012"/>
<path d="M123.305 17.5201H118.576V24.0717H105.965V28.0618H135.932V24.0717H123.305V17.5201Z" fill="#E60012"/>
<path d="M120.94 10.4432L109.545 20.5907L106.179 17.2575L120.94 4.30206L135.439 17.2575L132.336 20.5907L120.94 10.4432Z" fill="#E60012"/>
<path d="M56.5573 5.8291H38.3967V18.0128C38.3967 23.6941 41.3359 27.0766 47.3785 27.0766H56.5573V22.6761H47.3785C44.1766 22.5119 43.0929 20.9848 43.0929 17.9307V10.2461H56.5573V5.8291Z" fill="#E60012"/>
<path d="M65.3586 4.8111H60.6132V28.0947H65.3586V17.9635H69.7427V13.4316H65.3586V4.8111Z" fill="#E60012"/>
</g>
<defs>
<clipPath id="clip0_12478_49613">
<rect width="135.932" height="32.3967" fill="white"/>
</clipPath>
</defs>
</svg>
